# xmcd
#
# Track frame offsets:
#	150
#	14491
#	28010
#	46908
#	61840
#	78912
#	93396
#	103358
#	122662
#	137208
#	152132
#	169270
#	185300
#	202454
#	219235
#	234457
#
# Disc length: 3407 seconds
#
# Revision: 1
# Processed by: cddbd v1.5.2PL0 Copyright (c) Steve Scherf et al.
# Submitted via: audiograbber 1.83.01
#
DISCID=df0d4d10
DTITLE=Reverend and The Lady - Chapter Two
DYEAR=2014
DGENRE=Blues
TTITLE0=Hoodoo Lady
TTITLE1=Airy Man Blues
TTITLE2=Blood in My Eyes
TTITLE3=Sheriff O.E. and Me
TTITLE4=My Man Rocks Me
TTITLE5=They got it Fixed Right on
TTITLE6=Shortning' Bread
TTITLE7=Sylvie
TTITLE8=Drunken Barrelhouse Blues
TTITLE9=Gettin' All wet
TTITLE10=The Girl and the Breadfull Snake
TTITLE11=Dollar Down
TTITLE12=Dusty ol' Dust
TTITLE13=High Fever Blues
TTITLE14=Come Along
TTITLE15=Waitin' for You
EXTD=
EXTT0=
EXTT1=
EXTT2=
EXTT3=
EXTT4=
EXTT5=
EXTT6=
EXTT7=
EXTT8=
EXTT9=
EXTT10=
EXTT11=
EXTT12=
EXTT13=
EXTT14=
EXTT15=
PLAYORDER=
